<svg width="32" height="32" viewBox="0 0 32 32" fill="none" xmlns="http://www.w3.org/2000/svg">
<rect width="32" height="32" rx="16" fill="#067B96"/>
<path d="M15.8332 10C16.0863 10 16.2956 10.188 16.3287 10.4321L16.3333 10.4999L16.3341 15.3333H21.1695C21.4457 15.3333 21.6695 15.5572 21.6695 15.8333C21.6695 16.0865 21.4814 16.2957 21.2374 16.3288L21.1695 16.3333H16.3341L16.3355 21.1661C16.3355 21.4422 16.1117 21.6662 15.8356 21.6662C15.5825 21.6662 15.3732 21.4782 15.3401 21.2341L15.3355 21.1663L15.3341 16.3333H10.5015C10.2253 16.3333 10.0015 16.1095 10.0015 15.8333C10.0015 15.5802 10.1896 15.371 10.4336 15.3379L10.5015 15.3333H15.3341L15.3333 10.5001C15.3333 10.224 15.5571 10 15.8332 10Z" fill="white"/>
</svg>
