<svg width="32" height="32" viewBox="0 0 32 32" fill="none" xmlns="http://www.w3.org/2000/svg">
<rect width="32" height="32" rx="16" fill="white"/>
<path d="M14.9439 22.4926C15.1938 22.7307 15.5895 22.721 15.8276 22.4711C16.0657 22.2212 16.056 21.8256 15.8061 21.5875L10.5966 16.6253H22.875C23.2202 16.6253 23.5 16.3455 23.5 16.0003C23.5 15.6552 23.2202 15.3753 22.875 15.3753L10.5965 15.3753L15.8061 10.4131C16.056 10.175 16.0657 9.77933 15.8276 9.52942C15.5895 9.2795 15.1938 9.26983 14.9439 9.50792L8.7615 15.3968C8.62075 15.5309 8.53742 15.702 8.51158 15.8797C8.504 15.9187 8.5 15.9591 8.5 16.0003C8.5 16.0416 8.504 16.082 8.51167 16.1211C8.5375 16.2987 8.62083 16.4697 8.7615 16.6037L14.9439 22.4926Z" fill="black"/>
</svg>
