<svg width="14" height="14" viewBox="0 0 14 14" fill="none" xmlns="http://www.w3.org/2000/svg">
<path d="M7 11.6667H12.25M1.75 11.6667H2.72681C3.01217 11.6667 3.15485 11.6667 3.28912 11.6345C3.40816 11.606 3.52196 11.5588 3.62635 11.4948C3.74408 11.4227 3.84497 11.3218 4.04675 11.12L11.375 3.79176C11.8583 3.30851 11.8583 2.525 11.375 2.04176C10.8918 1.55851 10.1083 1.55851 9.625 2.04176L2.29673 9.37004C2.09496 9.57182 1.99407 9.67268 1.92192 9.79045C1.85795 9.89481 1.81081 10.0086 1.78223 10.1277C1.75 10.2619 1.75 10.4046 1.75 10.69V11.6667Z" stroke="#067B96" stroke-linecap="round" stroke-linejoin="round"/>
</svg>
