<svg width="16" height="16" viewBox="0 0 16 16" fill="none" xmlns="http://www.w3.org/2000/svg">
<g clip-path="url(#clip0_1_31)">
<path d="M15.3333 7.33333H0.666667C0.298477 7.33333 0 7.63181 0 7.99999C0 8.36818 0.298477 8.66666 0.666667 8.66666H15.3333C15.7015 8.66666 16 8.36818 16 7.99999C16 7.63181 15.7015 7.33333 15.3333 7.33333Z" fill="black"/>
<path d="M15.3333 2.66667H0.666667C0.298477 2.66667 0 2.96515 0 3.33334C0 3.70153 0.298477 4.00001 0.666667 4.00001H15.3333C15.7015 4.00001 16 3.70153 16 3.33334C16 2.96515 15.7015 2.66667 15.3333 2.66667Z" fill="black"/>
<path d="M15.3333 12H0.666667C0.298477 12 0 12.2985 0 12.6667C0 13.0349 0.298477 13.3333 0.666667 13.3333H15.3333C15.7015 13.3333 16 13.0349 16 12.6667C16 12.2985 15.7015 12 15.3333 12Z" fill="black"/>
</g>
<defs>
<clipPath id="clip0_1_31">
<rect width="16" height="16" fill="white"/>
</clipPath>
</defs>
</svg>
