<svg width="24" height="24" viewBox="0 0 24 24" fill="none" xmlns="http://www.w3.org/2000/svg">
<path d="M20.867 3.79698C20.726 2.67198 19.851 1.75498 18.739 1.56798C14.266 0.814985 9.733 0.814985 5.26 1.56798C4.148 1.75598 3.273 2.67198 3.132 3.79698C2.462 9.13398 2.437 14.547 3.055 19.883C3.12 20.434 3.417 20.94 3.869 21.272C4.293 21.583 4.713 21.894 5.13 22.204C5.774 22.683 6.633 22.738 7.318 22.348C7.68 22.143 8.046 21.93 8.417 21.708C8.772 21.498 9.22 21.512 9.555 21.745L10.865 22.649C11.208 22.884 11.599 23.002 11.991 23.002C12.383 23.002 12.775 22.884 13.116 22.65L14.428 21.745C14.767 21.512 15.212 21.499 15.566 21.708C15.939 21.93 16.308 22.145 16.672 22.351C17.358 22.74 18.215 22.685 18.859 22.207C19.278 21.895 19.702 21.583 20.128 21.27C20.582 20.938 20.879 20.432 20.944 19.88C21.562 14.544 21.537 9.13198 20.867 3.79698ZM19.95 19.765C19.918 20.041 19.767 20.296 19.538 20.464C19.108 20.777 18.683 21.091 18.263 21.405C17.939 21.645 17.508 21.675 17.166 21.481C16.809 21.278 16.445 21.066 16.077 20.848C15.386 20.437 14.515 20.469 13.86 20.923L12.551 21.825C12.212 22.058 11.773 22.059 11.432 21.825L10.125 20.923C9.467 20.467 8.597 20.438 7.905 20.849C7.54 21.066 7.18 21.277 6.825 21.478C6.482 21.673 6.051 21.643 5.727 21.402C5.308 21.09 4.886 20.778 4.459 20.465C4.23 20.297 4.08 20.042 4.048 19.767C3.438 14.51 3.463 9.17898 4.123 3.92098C4.21 3.23098 4.745 2.66898 5.425 2.55398C9.786 1.81898 14.21 1.81898 18.571 2.55398C19.251 2.66898 19.786 3.23098 19.873 3.92198C20.533 9.17799 20.559 14.509 19.948 19.765H19.95Z" fill="black" fill-opacity="0.5"/>
<path d="M15.685 6.43597H8.316C8.04 6.43597 7.816 6.65997 7.816 6.93597C7.816 7.21197 8.04 7.43597 8.316 7.43597H15.685C15.961 7.43597 16.185 7.21197 16.185 6.93597C16.185 6.65997 15.961 6.43597 15.685 6.43597Z" fill="black" fill-opacity="0.5"/>
<path d="M15.685 10.449H8.316C8.04 10.449 7.816 10.673 7.816 10.949C7.816 11.225 8.04 11.449 8.316 11.449H15.685C15.961 11.449 16.185 11.225 16.185 10.949C16.185 10.673 15.961 10.449 15.685 10.449Z" fill="black" fill-opacity="0.5"/>
<path d="M12.168 14.415H8.315C8.039 14.415 7.815 14.639 7.815 14.915C7.815 15.191 8.039 15.415 8.315 15.415H12.168C12.444 15.415 12.668 15.191 12.668 14.915C12.668 14.639 12.444 14.415 12.168 14.415Z" fill="black" fill-opacity="0.5"/>
</svg>
