<svg width="32" height="32" viewBox="0 0 32 32" fill="none" xmlns="http://www.w3.org/2000/svg">
<rect width="32" height="32" rx="16" fill="white"/>
<g clip-path="url(#clip0_1_101)">
<path d="M23.8046 22.862L19.8253 18.8827C20.9097 17.5564 21.4429 15.8641 21.3145 14.1557C21.1862 12.4474 20.4061 10.8537 19.1357 9.70435C17.8653 8.55501 16.2017 7.93793 14.4891 7.98075C12.7764 8.02357 11.1458 8.72302 9.93439 9.93441C8.72299 11.1458 8.02355 12.7765 7.98073 14.4891C7.9379 16.2017 8.55498 17.8653 9.70432 19.1357C10.8537 20.4061 12.4473 21.1862 14.1557 21.3146C15.864 21.4429 17.5564 20.9097 18.8826 19.8253L22.862 23.8047C22.9877 23.9261 23.1561 23.9933 23.3309 23.9918C23.5057 23.9903 23.6729 23.9202 23.7965 23.7965C23.9201 23.6729 23.9902 23.5057 23.9918 23.3309C23.9933 23.1561 23.9261 22.9877 23.8046 22.862ZM14.6666 20C13.6118 20 12.5807 19.6872 11.7036 19.1012C10.8265 18.5151 10.143 17.6822 9.73929 16.7076C9.33562 15.7331 9.23 14.6607 9.43579 13.6262C9.64158 12.5916 10.1495 11.6413 10.8954 10.8954C11.6413 10.1495 12.5916 9.6416 13.6262 9.43581C14.6607 9.23002 15.7331 9.33564 16.7076 9.73931C17.6822 10.143 18.5151 10.8266 19.1011 11.7036C19.6872 12.5807 20 13.6118 20 14.6667C19.9984 16.0807 19.436 17.4363 18.4361 18.4361C17.4363 19.436 16.0806 19.9984 14.6666 20Z" fill="black"/>
</g>
<defs>
<clipPath id="clip0_1_101">
<rect width="16" height="16" fill="white" transform="translate(8 8)"/>
</clipPath>
</defs>
</svg>
